<svg width="34" height="33" viewBox="0 0 34 33" fill="none"
    xmlns="http://www.w3.org/2000/svg">
    <circle cx="17.1147" cy="16.5" r="16.5" fill="white"/>
    <path fill-rule="evenodd" clip-rule="evenodd" d="M24.3039 11.4145C23.465 10.5088 22.3269 10 21.1402 10C19.9536 10 18.8155 10.5088 17.9766 11.4145C17.5115 11.9164 16.7176 11.9164 16.2525 11.4145C14.5052 9.52912 11.6724 9.52912 9.92517 11.4145C8.17794 13.2999 8.17794 16.3567 9.92517 18.2421L10.7872 19.1724L15.6476 24.4171C16.4391 25.2711 17.79 25.2711 18.5815 24.4171L23.4418 19.1724L24.3039 18.2421C25.1432 17.3369 25.6147 16.1088 25.6147 14.8283C25.6147 13.5478 25.1432 12.3198 24.3039 11.4145Z" fill="#FD7360"/>
</svg>
