<svg width="25" height="24" viewBox="0 0 25 24" fill="none"
    xmlns="http://www.w3.org/2000/svg">
    <path fill-rule="evenodd" clip-rule="evenodd" d="M17.1147 9C18.4955 9 19.6147 7.88071 19.6147 6.5C19.6147 5.11929 18.4955 4 17.1147 4C15.734 4 14.6147 5.11929 14.6147 6.5C14.6147 7.88071 15.734 9 17.1147 9Z" stroke="#092C4C" stroke-width="1.5" stroke-linecap="round" stroke-linejoin="round"/>
    <path fill-rule="evenodd" clip-rule="evenodd" d="M7.11475 15C8.49546 15 9.61475 13.8807 9.61475 12.5C9.61475 11.1193 8.49546 10 7.11475 10C5.73403 10 4.61475 11.1193 4.61475 12.5C4.61475 13.8807 5.73403 15 7.11475 15Z" stroke="#092C4C" stroke-width="1.5" stroke-linecap="round" stroke-linejoin="round"/>
    <path fill-rule="evenodd" clip-rule="evenodd" d="M17.1147 21C18.4955 21 19.6147 19.8807 19.6147 18.5C19.6147 17.1193 18.4955 16 17.1147 16C15.734 16 14.6147 17.1193 14.6147 18.5C14.6147 19.8807 15.734 21 17.1147 21Z" stroke="#092C4C" stroke-width="1.5" stroke-linecap="round" stroke-linejoin="round"/>
    <path d="M9.61475 14L14.6147 17" stroke="#092C4C" stroke-width="1.5" stroke-linecap="round" stroke-linejoin="round"/>
    <path d="M14.6147 8L9.61475 11" stroke="#092C4C" stroke-width="1.5" stroke-linecap="round" stroke-linejoin="round"/>
</svg>
