<svg width="14" height="13" viewBox="0 0 14 13" fill="none"
    xmlns="http://www.w3.org/2000/svg">
    <path d="M6.13024 0.533004C6.51342 -0.142371 7.48658 -0.142373 7.86976 0.533002L9.32447 3.09699C9.46691 3.34805 9.71089 3.52532 9.99368 3.58321L12.8817 4.17439C13.6424 4.33012 13.9432 5.25565 13.4193 5.82878L11.4303 8.0046C11.2355 8.21766 11.1423 8.50447 11.1747 8.79132L11.5049 11.7207C11.5918 12.4923 10.8045 13.0643 10.0976 12.7431L7.4136 11.5239C7.15079 11.4045 6.84921 11.4045 6.5864 11.5239L3.90245 12.7431C3.19547 13.0643 2.40816 12.4923 2.49514 11.7207L2.82534 8.79132C2.85767 8.50448 2.76447 8.21766 2.56972 8.0046L0.580749 5.82878C0.0568383 5.25565 0.357563 4.33012 1.11829 4.17439L4.00631 3.58321C4.28911 3.52532 4.53309 3.34805 4.67553 3.09699L6.13024 0.533004Z" fill="#FFA501"/>
</svg>
