<svg width="22" height="21" viewBox="0 0 22 21" fill="none"
    xmlns="http://www.w3.org/2000/svg">
    <path d="M9.74496 0.53299C10.1281 -0.142386 11.1013 -0.142384 11.4845 0.532991L14.2135 5.34303C14.356 5.59409 14.5999 5.77136 14.8827 5.82924L20.3007 6.93831C21.0614 7.09404 21.3621 8.01957 20.8382 8.5927L17.1069 12.6745C16.9121 12.8876 16.8189 13.1744 16.8513 13.4613L17.4707 18.9567C17.5577 19.7284 16.7704 20.3004 16.0634 19.9792L11.0283 17.6919C10.7655 17.5725 10.4639 17.5725 10.2011 17.6919L5.16603 19.9792C4.45905 20.3004 3.67175 19.7284 3.75872 18.9567L4.37817 13.4613C4.4105 13.1744 4.31731 12.8876 4.12255 12.6745L0.391246 8.5927C-0.132665 8.01957 0.168061 7.09404 0.92879 6.93831L6.34672 5.82924C6.62951 5.77136 6.8735 5.59409 7.01594 5.34303L9.74496 0.53299Z" fill="#FFA501"/>
</svg>
