<svg width="15" height="12" viewBox="0 0 15 12" fill="none"
    xmlns="http://www.w3.org/2000/svg">
    <path d="M10.5777 11.3333V10.1481C10.5777 8.83902 9.51644 7.77777 8.20732 7.77777H3.46659C2.15747 7.77777 1.09622 8.83902 1.09622 10.1481V11.3333" stroke="#FBA089" stroke-width="1.3" stroke-linecap="round" stroke-linejoin="round"/>
    <path fill-rule="evenodd" clip-rule="evenodd" d="M5.83692 5.40739C7.14604 5.40739 8.20729 4.34614 8.20729 3.03702C8.20729 1.72791 7.14604 0.666656 5.83692 0.666656C4.5278 0.666656 3.46655 1.72791 3.46655 3.03702C3.46655 4.34614 4.5278 5.40739 5.83692 5.40739Z" stroke="#FBA089" stroke-width="1.3" stroke-linecap="round" stroke-linejoin="round"/>
    <path d="M14.1332 11.3333V10.1481C14.1324 9.0679 13.4014 8.12485 12.3554 7.8548" stroke="#FBA089" stroke-width="1.3" stroke-linecap="round" stroke-linejoin="round"/>
    <path d="M9.98511 0.743683C11.0339 1.01223 11.7675 1.95731 11.7675 3.03998C11.7675 4.12265 11.0339 5.06772 9.98511 5.33627" stroke="#FBA089" stroke-width="1.3" stroke-linecap="round" stroke-linejoin="round"/>
</svg>
